<svg width="30" height="30" viewBox="0 0 30 30" fill="none" xmlns="http://www.w3.org/2000/svg">
<circle cx="15" cy="15" r="14.5" fill="#F4F6F9" stroke="#718096"/>
<path d="M13.7368 17.0625H15.7263V16.6719C15.7263 15.9531 16.1211 15.6562 17.0211 15.2969C17.6684 15.0469 18.2684 14.7969 18.7105 14.3906C19.2158 13.9219 19.5 13.2656 19.5 12.2187C19.5 10 17.9211 9 15.2684 9C12.7737 9 11.1316 9.9375 10.5 12.0781L12.6789 12.0937C13.0737 11.0312 13.8632 10.6406 15.3 10.6406C16.6263 10.6406 17.3526 11.1875 17.3526 12.2969C17.3526 12.7969 17.2579 13.0937 17.0526 13.3437C16.7684 13.6719 16.2947 13.8437 15.5684 14.1719C14.3211 14.7187 13.7368 15 13.7368 16.3125V17.0625ZM14.8421 17.9375C13.9579 17.9375 13.4684 18.2969 13.4684 19.0781C13.4684 19.8906 13.9579 20.25 14.8421 20.25C15.6947 20.25 16.2 19.8906 16.2 19.0781C16.2 18.2969 15.6947 17.9375 14.8421 17.9375Z" fill="#718096"/>
</svg>
