<svg width="20" height="26" viewBox="0 0 20 26" fill="none" xmlns="http://www.w3.org/2000/svg">
<path d="M18.75 24.25L18.2539 25.1182L19.75 25.9732V24.25H18.75ZM1.25 24.25H0.25V25.9732L1.74614 25.1182L1.25 24.25ZM10 19.25L10.4961 18.3818C10.1887 18.2061 9.81129 18.2061 9.50386 18.3818L10 19.25ZM16.7025 2.15873L17.1565 1.26772L16.7025 2.15873ZM18.3413 3.79754L19.2323 3.34355L18.3413 3.79754ZM3.29754 2.15873L2.84355 1.26772L3.29754 2.15873ZM1.65873 3.79754L0.767719 3.34355L1.65873 3.79754ZM7.25 2.75H12.75V0.75H7.25V2.75ZM17.75 7.75V24.25H19.75V7.75H17.75ZM2.25 24.25V7.75H0.25V24.25H2.25ZM19.2461 23.3818L10.4961 18.3818L9.50386 20.1182L18.2539 25.1182L19.2461 23.3818ZM9.50386 18.3818L0.753861 23.3818L1.74614 25.1182L10.4961 20.1182L9.50386 18.3818ZM12.75 2.75C13.8166 2.75 14.5564 2.75078 15.1316 2.79777C15.695 2.84381 16.0119 2.92917 16.2485 3.04973L17.1565 1.26772C16.5909 0.979556 15.9816 0.860555 15.2944 0.804412C14.6189 0.749222 13.7836 0.75 12.75 0.75V2.75ZM19.75 7.75C19.75 6.7164 19.7508 5.88106 19.6956 5.20558C19.6394 4.51841 19.5204 3.9091 19.2323 3.34355L17.4503 4.25153C17.5708 4.48814 17.6562 4.80496 17.7022 5.36844C17.7492 5.94359 17.75 6.6834 17.75 7.75H19.75ZM16.2485 3.04973C16.7659 3.31338 17.1866 3.73408 17.4503 4.25153L19.2323 3.34355C18.7769 2.44978 18.0502 1.72312 17.1565 1.26772L16.2485 3.04973ZM7.25 0.75C6.2164 0.75 5.38106 0.749222 4.70558 0.804412C4.01841 0.860555 3.4091 0.979556 2.84355 1.26772L3.75153 3.04973C3.98814 2.92917 4.30496 2.84381 4.86844 2.79777C5.44359 2.75078 6.1834 2.75 7.25 2.75V0.75ZM2.25 7.75C2.25 6.6834 2.25078 5.94359 2.29777 5.36844C2.34381 4.80496 2.42917 4.48814 2.54973 4.25153L0.767719 3.34355C0.479556 3.9091 0.360555 4.51841 0.304412 5.20558C0.249222 5.88106 0.25 6.7164 0.25 7.75H2.25ZM2.84355 1.26772C1.94978 1.72312 1.22312 2.44978 0.767719 3.34355L2.54973 4.25153C2.81338 3.73408 3.23408 3.31338 3.75153 3.04973L2.84355 1.26772Z" fill="#718096"/>
</svg>
