<svg width="32" height="33" viewBox="0 0 32 33" fill="none" xmlns="http://www.w3.org/2000/svg">
<path d="M20.1666 3.52588C20.1666 2.69745 19.4951 2.02588 18.6666 2.02588C17.8382 2.02588 17.1666 2.69745 17.1666 3.52588H20.1666ZM26.3074 12.6666C27.1358 12.6666 27.8074 11.995 27.8074 11.1666C27.8074 10.3382 27.1358 9.6666 26.3074 9.6666V12.6666ZM18.6666 3.1665L19.7273 2.10584C19.446 1.82454 19.0645 1.6665 18.6666 1.6665V3.1665ZM26.6666 11.1665H28.1666C28.1666 10.7687 28.0086 10.3871 27.7273 10.1058L26.6666 11.1665ZM7.51735 29.3972L6.83637 30.7337L7.51735 29.3972ZM5.76929 27.6491L4.43278 28.3301H4.43278L5.76929 27.6491ZM24.4826 29.3972L25.1636 30.7337L24.4826 29.3972ZM26.2307 27.6491L27.5672 28.3301L26.2307 27.6491ZM5.76929 5.35054L4.43278 4.66956H4.43278L5.76929 5.35054ZM7.51735 3.60248L6.83637 2.26597L7.51735 3.60248ZM20.2727 26.2272L21.3333 27.2878L23.4546 25.1665L22.394 24.1058L20.2727 26.2272ZM20.394 22.1058L19.3333 21.0452L17.212 23.1665L18.2727 24.2272L20.394 22.1058ZM18.6666 11.1666H17.1666V12.6666H18.6666V11.1666ZM17.1666 3.52588V9.03327H20.1666V3.52588H17.1666ZM20.8 12.6666H26.3074V9.6666H20.8V12.6666ZM20.2666 28.3332H11.7333V31.3332H20.2666V28.3332ZM6.83331 23.4332V9.5665H3.83331V23.4332H6.83331ZM11.7333 4.6665H18.6666V1.6665H11.7333V4.6665ZM25.1666 11.1665V23.4332H28.1666V11.1665H25.1666ZM17.606 4.22716L25.606 12.2272L27.7273 10.1058L19.7273 2.10584L17.606 4.22716ZM11.7333 28.3332C10.5885 28.3332 9.82003 28.332 9.22827 28.2837C8.65402 28.2367 8.37946 28.153 8.19834 28.0607L6.83637 30.7337C7.51089 31.0774 8.2242 31.2116 8.98397 31.2737C9.72623 31.3343 10.638 31.3332 11.7333 31.3332V28.3332ZM3.83331 23.4332C3.83331 24.5285 3.83215 25.4403 3.89279 26.1825C3.95487 26.9423 4.08909 27.6556 4.43278 28.3301L7.1058 26.9681C7.01351 26.787 6.92975 26.5125 6.88283 25.9382C6.83448 25.3465 6.83331 24.578 6.83331 23.4332H3.83331ZM8.19834 28.0607C7.72793 27.821 7.34548 27.4386 7.1058 26.9681L4.43278 28.3301C4.96008 29.365 5.80147 30.2064 6.83637 30.7337L8.19834 28.0607ZM20.2666 31.3332C21.362 31.3332 22.2737 31.3343 23.016 31.2737C23.7758 31.2116 24.4891 31.0774 25.1636 30.7337L23.8016 28.0607C23.6205 28.153 23.3459 28.2367 22.7717 28.2837C22.1799 28.332 21.4115 28.3332 20.2666 28.3332V31.3332ZM25.1666 23.4332C25.1666 24.578 25.1655 25.3465 25.1171 25.9382C25.0702 26.5125 24.9864 26.787 24.8942 26.9681L27.5672 28.3301C27.9109 27.6556 28.0451 26.9423 28.1072 26.1825C28.1678 25.4403 28.1666 24.5285 28.1666 23.4332H25.1666ZM25.1636 30.7337C26.1985 30.2064 27.0399 29.365 27.5672 28.3301L24.8942 26.9681C24.6545 27.4386 24.272 27.821 23.8016 28.0607L25.1636 30.7337ZM6.83331 9.5665C6.83331 8.42165 6.83448 7.65322 6.88283 7.06146C6.92975 6.48721 7.01351 6.21265 7.1058 6.03153L4.43278 4.66956C4.08909 5.34408 3.95487 6.05739 3.89279 6.81716C3.83215 7.55942 3.83331 8.47115 3.83331 9.5665H6.83331ZM11.7333 1.6665C10.638 1.6665 9.72623 1.66534 8.98397 1.72598C8.2242 1.78806 7.51089 1.92228 6.83637 2.26597L8.19834 4.93899C8.37946 4.8467 8.65402 4.76294 9.22827 4.71602C9.82003 4.66767 10.5885 4.6665 11.7333 4.6665V1.6665ZM7.1058 6.03153C7.34548 5.56112 7.72793 5.17867 8.19834 4.93899L6.83637 2.26597C5.80147 2.79327 4.96008 3.63466 4.43278 4.66956L7.1058 6.03153ZM19.1666 19.8332C19.1666 21.5821 17.7489 22.9998 16 22.9998V25.9998C19.4057 25.9998 22.1666 23.2389 22.1666 19.8332H19.1666ZM16 22.9998C14.2511 22.9998 12.8333 21.5821 12.8333 19.8332H9.83331C9.83331 23.2389 12.5942 25.9998 16 25.9998V22.9998ZM12.8333 19.8332C12.8333 18.0843 14.2511 16.6665 16 16.6665V13.6665C12.5942 13.6665 9.83331 16.4274 9.83331 19.8332H12.8333ZM16 16.6665C17.7489 16.6665 19.1666 18.0843 19.1666 19.8332H22.1666C22.1666 16.4274 19.4057 13.6665 16 13.6665V16.6665ZM22.394 24.1058L20.394 22.1058L18.2727 24.2272L20.2727 26.2272L22.394 24.1058ZM17.1666 9.03327V11.1666H20.1666V9.03327H17.1666ZM18.6666 12.6666H20.8V9.6666H18.6666V12.6666Z" fill="#0B68FE"/>
</svg>
