<svg width="24" height="25" viewBox="0 0 24 25" fill="none" xmlns="http://www.w3.org/2000/svg">
<path d="M10.3902 18.4616L10.5853 19.4424H10.5853L10.3902 18.4616ZM11.9616 16.8902L12.9424 17.0853V17.0853L11.9616 16.8902ZM3.03843 16.8902L4.01921 16.6951L3.03843 16.8902ZM4.60982 18.4616L4.41473 19.4424H4.41473L4.60982 18.4616ZM10.3902 13.5384L10.1951 14.5192L10.3902 13.5384ZM11.9616 15.1098L12.9424 14.9147V14.9147L11.9616 15.1098ZM4.60982 13.5384L4.80491 14.5192H4.80491L4.60982 13.5384ZM3.03843 15.1098L4.01921 15.3049L3.03843 15.1098ZM4 13.5H3C3 14.0523 3.44772 14.5 4 14.5V13.5ZM11 13.5V14.5C11.5523 14.5 12 14.0523 12 13.5H11ZM3 21.5H2V23.5H3V21.5ZM12 23.5H13V21.5H12V23.5ZM10.7507 5.7836C10.2159 5.92126 9.8939 6.46644 10.0316 7.00129C10.1692 7.53615 10.7144 7.85813 11.2493 7.72047L10.7507 5.7836ZM15.6248 20.9915L14.6978 21.3668L15.4483 23.2206L16.3752 22.8454L15.6248 20.9915ZM5.5 14.5H9.5V12.5H5.5V14.5ZM5.5 19.5H9.5V17.5H5.5V19.5ZM9.5 19.5C9.91672 19.5 10.2711 19.5048 10.5853 19.4424L10.1951 17.4808C10.1228 17.4952 10.0126 17.5 9.5 17.5V19.5ZM11 16C11 16.5126 10.9952 16.6228 10.9808 16.6951L12.9424 17.0853C13.0048 16.7711 13 16.4167 13 16H11ZM10.5853 19.4424C11.7753 19.2056 12.7056 18.2753 12.9424 17.0853L10.9808 16.6951C10.9019 17.0918 10.5918 17.4019 10.1951 17.4808L10.5853 19.4424ZM2 16C2 16.4167 1.99516 16.7711 2.05764 17.0853L4.01921 16.6951C4.00484 16.6228 4 16.5126 4 16H2ZM5.5 17.5C4.98741 17.5 4.87716 17.4952 4.80491 17.4808L4.41473 19.4424C4.72888 19.5048 5.08328 19.5 5.5 19.5V17.5ZM2.05764 17.0853C2.29436 18.2753 3.22466 19.2056 4.41473 19.4424L4.80491 17.4808C4.40822 17.4019 4.09812 17.0918 4.01921 16.6951L2.05764 17.0853ZM9.5 14.5C10.0126 14.5 10.1228 14.5048 10.1951 14.5192L10.5853 12.5576C10.2711 12.4952 9.91672 12.5 9.5 12.5V14.5ZM13 16C13 15.5833 13.0048 15.2289 12.9424 14.9147L10.9808 15.3049C10.9952 15.3772 11 15.4874 11 16H13ZM10.1951 14.5192C10.5918 14.5981 10.9019 14.9082 10.9808 15.3049L12.9424 14.9147C12.7056 13.7247 11.7753 12.7944 10.5853 12.5576L10.1951 14.5192ZM5.5 12.5C5.08328 12.5 4.72888 12.4952 4.41473 12.5576L4.80491 14.5192C4.87716 14.5048 4.98741 14.5 5.5 14.5V12.5ZM4 16C4 15.4874 4.00484 15.3772 4.01921 15.3049L2.05764 14.9147C1.99516 15.2289 2 15.5833 2 16H4ZM4.41473 12.5576C3.22466 12.7944 2.29436 13.7247 2.05764 14.9147L4.01921 15.3049C4.09812 14.9082 4.40822 14.5981 4.80491 14.5192L4.41473 12.5576ZM3 6V13.5H5V6H3ZM4 14.5H11V12.5H4V14.5ZM12 13.5V6H10V13.5H12ZM7.5 3.5C8.88071 3.5 10 4.61929 10 6H12C12 3.51472 9.98528 1.5 7.5 1.5V3.5ZM7.5 1.5C5.01472 1.5 3 3.51472 3 6H5C5 4.61929 6.11929 3.5 7.5 3.5V1.5ZM3 23.5H12V21.5H3V23.5ZM13 7.5C16.866 7.5 20 10.634 20 14.5H22C22 9.52944 17.9706 5.5 13 5.5V7.5ZM11.2493 7.72047C11.8078 7.57673 12.3942 7.5 13 7.5V5.5C12.2246 5.5 11.4707 5.59829 10.7507 5.7836L11.2493 7.72047ZM20 14.5C20 17.4361 18.192 19.9524 15.6248 20.9915L16.3752 22.8454C19.6717 21.511 22 18.2786 22 14.5H20Z" fill="#718096"/>
</svg>
