<svg width="60" height="60" viewBox="0 0 60 60" fill="none" xmlns="http://www.w3.org/2000/svg">
<path d="M43.5 27H16.5M36 15V21M24 15V21M23.7 45H36.3C38.8202 45 40.0804 45 41.043 44.5095C41.8897 44.0781 42.5781 43.3897 43.0095 42.543C43.5 41.5804 43.5 40.3202 43.5 37.8V25.2C43.5 22.6798 43.5 21.4196 43.0095 20.457C42.5781 19.6103 41.8897 18.9219 41.043 18.4905C40.0804 18 38.8202 18 36.3 18H23.7C21.1798 18 19.9196 18 18.957 18.4905C18.1103 18.9219 17.4219 19.6103 16.9905 20.457C16.5 21.4196 16.5 22.6798 16.5 25.2V37.8C16.5 40.3202 16.5 41.5804 16.9905 42.543C17.4219 43.3897 18.1103 44.0781 18.957 44.5095C19.9196 45 21.1798 45 23.7 45Z" stroke="#0B68FE" stroke-width="2" stroke-linecap="square" stroke-linejoin="round"/>
<path d="M29.5823 38.773L29.5824 38.773C30.071 38.26 30.3115 37.5857 30.3115 36.7604C30.3115 36.0168 30.1042 35.4146 29.6798 34.9653C29.2908 34.5535 28.7444 34.3178 28.052 34.2489L29.8335 32.1662C30.0478 31.926 30.1193 31.6508 30.0385 31.3511C30.0016 31.2008 29.9286 31.0791 29.8141 30.9962C29.7004 30.914 29.5564 30.8777 29.3912 30.8777H26.4016C26.1952 30.8777 26.0221 30.93 25.9014 31.0523C25.781 31.1743 25.7296 31.3489 25.7296 31.5571C25.7296 31.7654 25.781 31.94 25.9014 32.062C26.0221 32.1842 26.1952 32.2366 26.4016 32.2366H28.2697L26.6602 34.1481C26.6601 34.1482 26.66 34.1483 26.6599 34.1484C26.4865 34.3513 26.3987 34.5875 26.3987 34.8529C26.3987 35.0539 26.4584 35.2216 26.593 35.3364C26.7246 35.4487 26.9114 35.4962 27.1355 35.4962C27.7412 35.4962 28.1772 35.6096 28.4599 35.8204C28.7371 36.0271 28.8811 36.3383 28.8811 36.7724C28.8811 37.2232 28.7701 37.5634 28.5602 37.8055L28.5602 37.8055L28.5592 37.8067C28.3609 38.0428 28.0517 38.1694 27.6104 38.1694C27.208 38.1694 26.7608 38.0358 26.2669 37.7596C26.0919 37.6617 25.925 37.6142 25.7726 37.6396C25.6151 37.6659 25.4944 37.7663 25.4081 37.9181L25.4081 37.9181L25.4076 37.919C25.315 38.0856 25.2826 38.2569 25.3189 38.4289C25.3548 38.5989 25.4554 38.7585 25.6085 38.9083L25.6092 38.9089C26.0461 39.329 26.7281 39.5284 27.632 39.5284C28.4453 39.5284 29.0995 39.2794 29.5823 38.773ZM31.5001 34.2366L31.5001 34.2366L31.5036 34.2354C31.6672 34.1805 31.811 34.0765 31.9355 33.929L32.7101 33.0822V38.6074C32.7101 38.8312 32.7602 39.0227 32.8696 39.1732L32.8695 39.1733L32.8717 39.1761C32.9943 39.3328 33.1694 39.4076 33.3822 39.4076C33.6007 39.4076 33.7801 39.3338 33.9034 39.1761C34.0214 39.0253 34.0758 38.8327 34.0758 38.6074V31.6658C34.0758 31.3894 34.0349 31.1655 33.9401 31.0077C33.8404 30.8417 33.6858 30.7569 33.4901 30.7569C33.3579 30.7569 33.2306 30.7894 33.1092 30.8528L33.1092 30.8528L33.1067 30.8542C33.0046 30.9113 32.9225 30.9689 32.8683 31.0282C32.821 31.0728 32.7437 31.1555 32.6385 31.2732L31.0627 33.0358C30.9145 33.2015 30.825 33.3848 30.8006 33.585C30.7751 33.7851 30.8365 33.9635 30.9784 34.1129L30.9847 34.1196L30.9921 34.1249C31.1542 34.2428 31.3263 34.2877 31.5001 34.2366Z" fill="#0B68FE" stroke="#0B68FE" stroke-width="0.2"/>
</svg>
